<svg width="250" height="250" viewBox="0 0 250 250" fill="none" xmlns="http://www.w3.org/2000/svg">
<path d="M83.3332 20.8333H41.6666C30.1607 20.8333 20.8333 30.1607 20.8333 41.6666V83.3333C20.8333 94.8392 30.1607 104.167 41.6666 104.167H83.3332C94.8392 104.167 104.167 94.8392 104.167 83.3333V41.6666C104.167 30.1607 94.8392 20.8333 83.3332 20.8333Z" stroke="#B9B9B9" stroke-width="19.4167" stroke-linecap="round" stroke-linejoin="round"/>
<path d="M145.833 20.8333C157.292 20.8333 166.667 30.2083 166.667 41.6666V83.3333C166.667 94.7916 157.292 104.167 145.833 104.167" stroke="#B9B9B9" stroke-width="19.4167" stroke-linecap="round" stroke-linejoin="round"/>
<path d="M208.333 20.8333C219.792 20.8333 229.167 30.2083 229.167 41.6666V83.3333C229.167 94.7916 219.792 104.167 208.333 104.167" stroke="#B9B9B9" stroke-width="19.4167" stroke-linecap="round" stroke-linejoin="round"/>
<path d="M104.167 187.5H52.0833C34.3749 187.5 20.8333 173.958 20.8333 156.25V145.833" stroke="#B9B9B9" stroke-width="19.4167" stroke-linecap="round" stroke-linejoin="round"/>
<path d="M72.9167 218.75L104.167 187.5L72.9167 156.25" stroke="#B9B9B9" stroke-width="19.4167" stroke-linecap="round" stroke-linejoin="round"/>
<path d="M208.333 145.833H166.667C155.161 145.833 145.833 155.161 145.833 166.667V208.333C145.833 219.839 155.161 229.167 166.667 229.167H208.333C219.839 229.167 229.167 219.839 229.167 208.333V166.667C229.167 155.161 219.839 145.833 208.333 145.833Z" stroke="#B9B9B9" stroke-width="19.4167" stroke-linecap="round" stroke-linejoin="round"/>
</svg>
