<svg width="49" height="62" viewBox="0 0 49 62" fill="none" xmlns="http://www.w3.org/2000/svg">
<path d="M36.9829 22.6007H11.3003C10.7332 22.6007 10.2729 23.0599 10.2729 23.628C10.2729 24.1961 10.7332 24.6553 11.3003 24.6553H36.9829C37.55 24.6553 38.0102 24.1961 38.0102 23.628C38.0102 23.0599 37.55 22.6007 36.9829 22.6007Z" fill="#2E3F7F"/>
<path d="M11.3003 16.4369H21.5733C22.1404 16.4369 22.6006 15.9777 22.6006 15.4096C22.6006 14.8415 22.1404 14.3823 21.5733 14.3823H11.3003C10.7332 14.3823 10.2729 14.8415 10.2729 15.4096C10.2729 15.9777 10.7332 16.4369 11.3003 16.4369Z" fill="#2E3F7F"/>
<path d="M36.9829 30.8192H11.3003C10.7332 30.8192 10.2729 31.2784 10.2729 31.8465C10.2729 32.4146 10.7332 32.8738 11.3003 32.8738H36.9829C37.55 32.8738 38.0102 32.4146 38.0102 31.8465C38.0102 31.2784 37.55 30.8192 36.9829 30.8192Z" fill="#2E3F7F"/>
<path d="M36.9829 39.0376H11.3003C10.7332 39.0376 10.2729 39.4968 10.2729 40.0649C10.2729 40.633 10.7332 41.0922 11.3003 41.0922H36.9829C37.55 41.0922 38.0102 40.633 38.0102 40.0649C38.0102 39.4968 37.55 39.0376 36.9829 39.0376Z" fill="#2E3F7F"/>
<path d="M36.9829 47.256H11.3003C10.7332 47.256 10.2729 47.7152 10.2729 48.2833C10.2729 48.8514 10.7332 49.3107 11.3003 49.3107H36.9829C37.55 49.3107 38.0102 48.8514 38.0102 48.2833C38.0102 47.7152 37.55 47.256 36.9829 47.256Z" fill="#2E3F7F"/>
<path d="M33.2991 0H0V61.6383H48.2833V14.9843L33.2991 0ZM33.9011 3.50722L44.7761 14.3823H33.9011V3.50722ZM2.05461 59.5837V2.05461H31.8465V16.4369H46.2287V59.5837H2.05461Z" fill="#2E3F7F"/>
</svg>
