<svg width="28" height="42" viewBox="0 0 28 42" fill="none" xmlns="http://www.w3.org/2000/svg">
<rect y="13.8367" width="8.12902" height="28.1633" fill="white"/>
<rect x="9.93555" y="7.20996" width="8.12902" height="34.79" fill="white"/>
<rect x="19.8711" y="23.7766" width="8.12902" height="18.2233" fill="white"/>
<line x1="3.25208e-08" y1="11.8884" x2="8.12902" y2="11.8884" stroke="black" stroke-width="0.583333"/>
<line x1="0.90332" y1="10.2316" x2="7.22589" y2="10.2316" stroke="black" stroke-width="0.583333"/>
<line x1="4.22445" y1="8.8667" x2="4.22445" y2="7.21003" stroke="black" stroke-width="0.583333"/>
<line x1="9.93555" y1="5.26168" x2="18.0646" y2="5.26168" stroke="black" stroke-width="0.583333"/>
<line x1="10.8386" y1="3.60494" x2="17.1612" y2="3.60494" stroke="black" stroke-width="0.583333"/>
<line x1="14.16" y1="2.23999" x2="14.16" y2="0.583325" stroke="black" stroke-width="0.583333"/>
<line x1="19.8711" y1="21.8283" x2="28.0001" y2="21.8283" stroke="black" stroke-width="0.583333"/>
<line x1="20.7742" y1="20.1716" x2="27.0967" y2="20.1716" stroke="black" stroke-width="0.583333"/>
<line x1="24.0953" y1="18.8066" x2="24.0953" y2="17.15" stroke="black" stroke-width="0.583333"/>
<rect y="13.8367" width="8.12902" height="28.1633" fill="#FB8500"/>
<rect x="9.93555" y="7.20996" width="8.12902" height="34.79" fill="#FB8500"/>
<rect x="19.8711" y="23.7766" width="8.12902" height="18.2233" fill="#FB8500"/>
<line x1="3.25208e-08" y1="11.8884" x2="8.12902" y2="11.8884" stroke="#FFB703" stroke-width="0.583333"/>
<line x1="0.90332" y1="10.2316" x2="7.22589" y2="10.2316" stroke="#FFB703" stroke-width="0.583333"/>
<line x1="4.22445" y1="8.8667" x2="4.22445" y2="7.21003" stroke="#FFB703" stroke-width="0.583333"/>
<line x1="9.93555" y1="5.26168" x2="18.0646" y2="5.26168" stroke="#FFB703" stroke-width="0.583333"/>
<line x1="10.8386" y1="3.60494" x2="17.1612" y2="3.60494" stroke="#FFB703" stroke-width="0.583333"/>
<line x1="14.16" y1="2.23999" x2="14.16" y2="0.583325" stroke="#FFB703" stroke-width="0.583333"/>
<line x1="19.8711" y1="21.8283" x2="28.0001" y2="21.8283" stroke="#FFB703" stroke-width="0.583333"/>
<line x1="20.7742" y1="20.1716" x2="27.0967" y2="20.1716" stroke="#FFB703" stroke-width="0.583333"/>
<line x1="24.0953" y1="18.8066" x2="24.0953" y2="17.15" stroke="#FFB703" stroke-width="0.583333"/>
</svg>
