<svg width="21" height="17" viewBox="0 0 21 17" fill="none" xmlns="http://www.w3.org/2000/svg">
<path d="M18.2451 0.234375H2.75553C2.06487 0.234375 1.40249 0.508742 0.91411 0.997118C0.425734 1.48549 0.151367 2.14787 0.151367 2.83854V14.1615C0.151367 14.8521 0.425734 15.5145 0.91411 16.0029C1.40249 16.4913 2.06487 16.7656 2.75553 16.7656H18.2451C18.9358 16.7656 19.5982 16.4913 20.0865 16.0029C20.5749 15.5145 20.8493 14.8521 20.8493 14.1615V2.83854C20.8493 2.14787 20.5749 1.48549 20.0865 0.997118C19.5982 0.508742 18.9358 0.234375 18.2451 0.234375ZM2.75553 1.27604H18.2451C18.6394 1.2749 19.0193 1.42397 19.3076 1.69293C19.5959 1.96188 19.771 2.33055 19.7972 2.72396C17.2243 4.09896 14.641 5.46354 12.0576 6.83854C11.7081 7.05756 11.3384 7.24244 10.9535 7.39062C10.6513 7.45026 10.3399 7.44487 10.0399 7.37483C9.73997 7.30478 9.45838 7.17168 9.21387 6.98438C7.7347 6.20312 6.25553 5.41146 4.78678 4.63021C3.59928 4.00521 2.39095 3.36979 1.20345 2.73438C1.22761 2.33929 1.4017 1.96833 1.69017 1.69729C1.97864 1.42624 2.35971 1.27557 2.75553 1.27604ZM19.8076 14.1615C19.8076 14.5759 19.643 14.9733 19.35 15.2663C19.0569 15.5593 18.6595 15.724 18.2451 15.724H2.75553C2.34113 15.724 1.94371 15.5593 1.65068 15.2663C1.35765 14.9733 1.19303 14.5759 1.19303 14.1615V3.91667C3.65137 5.20833 6.09928 6.52083 8.55762 7.82292C8.99683 8.0922 9.46967 8.30235 9.96387 8.44792C10.6872 8.56552 11.4285 8.41355 12.0472 8.02083C13.5576 7.22917 15.0576 6.42708 16.568 5.63542C17.6514 5.05208 18.7243 4.48958 19.8076 3.91667V14.1615Z" fill="white"/>
</svg>
